<svg xmlns="http://www.w3.org/2000/svg" xmlns:xlink="http://www.w3.org/1999/xlink" preserveAspectRatio="xMidYMid meet" width="2040" height="2040" viewBox="0 0 2040 2040" style="width:100%;height:100%"><defs><animateTransform repeatCount="indefinite" dur="1.3166667s" begin="0s" xlink:href="#_R_G_L_0_G_L_9_G" fill="freeze" attributeName="transform" from="0" to="0" type="rotate" additive="sum" keyTimes="0;1" values="0;0" keySplines="0 0 0 0" calcMode="spline"/><animateTransform repeatCount="indefinite" dur="1.3166667s" begin="0s" xlink:href="#_R_G_L_0_G_L_9_G" fill="freeze" attributeName="transform" from="-174.839 -122.405" to="-174.839 -122.405" type="translate" additive="sum" keyTimes="0;1" values="-174.839 -122.405;-174.839 -122.405" keySplines="0 0 1 1" calcMode="spline"/><animateMotion repeatCount="indefinite" dur="1.3166667s" begin="0s" xlink:href="#_R_G_L_0_G_L_9_G_N_6_T_0" fill="freeze" keyTimes="0;1" path="M1816 1814 C1816,1814 1816,1814 1816,1814 " keyPoints="0;1" keySplines="0 0 0 0" calcMode="spline"/><animateTransform repeatCount="indefinite" dur="1.3166667s" begin="0s" xlink:href="#_R_G_L_0_G_L_9_G_N_6_T_0" fill="freeze" attributeName="transform" from="0" to="0" type="rotate" additive="sum" keyTimes="0;1" values="0;0" keySplines="0 0 0 0" calcMode="spline"/><animateTransform repeatCount="indefinite" dur="1.3166667s" begin="0s" xlink:href="#_R_G_L_0_G_L_9_G_N_6_T_0" fill="freeze" attributeName="transform" from="0 0" to="0 0" type="scale" additive="sum" keyTimes="0;1" values="0 0;0 0" keySplines="0 0 0 0" calcMode="spline"/><animateTransform repeatCount="indefinite" dur="1.3166667s" begin="0s" xlink:href="#_R_G_L_0_G_L_8_G" fill="freeze" attributeName="transform" from="0" to="0" type="rotate" additive="sum" keyTimes="0;1" values="0;0" keySplines="0 0 0 0" calcMode="spline"/><animateTransform repeatCount="indefinite" dur="1.3166667s" begin="0s" xlink:href="#_R_G_L_0_G_L_8_G" fill="freeze" attributeName="transform" from="-158.255 -104.109" to="-158.255 -104.109" type="translate" additive="sum" keyTimes="0;1" values="-158.255 -104.109;-158.255 -104.109" keySplines="0 0 1 1" calcMode="spline"/><animateMotion repeatCount="indefinite" dur="1.3166667s" begin="0s" xlink:href="#_R_G_L_0_G_L_8_G_N_6_T_0" fill="freeze" keyTimes="0;1" path="M1816 1814 C1816,1814 1816,1814 1816,1814 " keyPoints="0;1" keySplines="0 0 0 0" calcMode="spline"/><animateTransform repeatCount="indefinite" dur="1.3166667s" begin="0s" xlink:href="#_R_G_L_0_G_L_8_G_N_6_T_0" fill="freeze" attributeName="transform" from="0" to="0" type="rotate" additive="sum" keyTimes="0;1" values="0;0" keySplines="0 0 0 0" calcMode="spline"/><animateTransform repeatCount="indefinite" dur="1.3166667s" begin="0s" xlink:href="#_R_G_L_0_G_L_8_G_N_6_T_0" fill="freeze" attributeName="transform" from="0 0" to="0 0" type="scale" additive="sum" keyTimes="0;1" values="0 0;0 0" keySplines="0 0 0 0" calcMode="spline"/><animateTransform repeatCount="indefinite" dur="1.3166667s" begin="0s" xlink:href="#_R_G_L_0_G_L_7_G" fill="freeze" attributeName="transform" from="-39" to="-39" type="rotate" additive="sum" keyTimes="0;1" values="-39;-39" keySplines="0 0 0 0" calcMode="spline"/><animateTransform repeatCount="indefinite" dur="1.3166667s" begin="0s" xlink:href="#_R_G_L_0_G_L_7_G" fill="freeze" attributeName="transform" from="-85.58 -76.536" to="-85.58 -76.536" type="translate" additive="sum" keyTimes="0;1" values="-85.58 -76.536;-85.58 -76.536" keySplines="0 0 1 1" calcMode="spline"/><animateMotion repeatCount="indefinite" dur="1.3166667s" begin="0s" xlink:href="#_R_G_L_0_G_L_7_G_N_6_T_0" fill="freeze" keyTimes="0;1" path="M1816 1814 C1816,1814 1816,1814 1816,1814 " keyPoints="0;1" keySplines="0 0 0 0" calcMode="spline"/><animateTransform repeatCount="indefinite" dur="1.3166667s" begin="0s" xlink:href="#_R_G_L_0_G_L_7_G_N_6_T_0" fill="freeze" attributeName="transform" from="0" to="0" type="rotate" additive="sum" keyTimes="0;1" values="0;0" keySplines="0 0 0 0" calcMode="spline"/><animateTransform repeatCount="indefinite" dur="1.3166667s" begin="0s" xlink:href="#_R_G_L_0_G_L_7_G_N_6_T_0" fill="freeze" attributeName="transform" from="0 0" to="0 0" type="scale" additive="sum" keyTimes="0;1" values="0 0;0 0" keySplines="0 0 0 0" calcMode="spline"/><animateTransform repeatCount="indefinite" dur="1.3166667s" begin="0s" xlink:href="#_R_G_L_0_G_L_6_G" fill="freeze" attributeName="transform" from="-26" to="-26" type="rotate" additive="sum" keyTimes="0;1" values="-26;-26" keySplines="0 0 0 0" calcMode="spline"/><animateTransform repeatCount="indefinite" dur="1.3166667s" begin="0s" xlink:href="#_R_G_L_0_G_L_6_G" fill="freeze" attributeName="transform" from="-80.185 -82.429" to="-80.185 -82.429" type="translate" additive="sum" keyTimes="0;1" values="-80.185 -82.429;-80.185 -82.429" keySplines="0 0 1 1" calcMode="spline"/><animateMotion repeatCount="indefinite" dur="1.3166667s" begin="0s" xlink:href="#_R_G_L_0_G_L_6_G_N_6_T_0" fill="freeze" keyTimes="0;1" path="M1816 1814 C1816,1814 1816,1814 1816,1814 " keyPoints="0;1" keySplines="0 0 0 0" calcMode="spline"/><animateTransform repeatCount="indefinite" dur="1.3166667s" begin="0s" xlink:href="#_R_G_L_0_G_L_6_G_N_6_T_0" fill="freeze" attributeName="transform" from="0" to="0" type="rotate" additive="sum" keyTimes="0;1" values="0;0" keySplines="0 0 0 0" calcMode="spline"/><animateTransform repeatCount="indefinite" dur="1.3166667s" begin="0s" xlink:href="#_R_G_L_0_G_L_6_G_N_6_T_0" fill="freeze" attributeName="transform" from="0 0" to="0 0" type="scale" additive="sum" keyTimes="0;1" values="0 0;0 0" keySplines="0 0 0 0" calcMode="spline"/><animateMotion repeatCount="indefinite" dur="1.3166667s" begin="0s" xlink:href="#_R_G_L_0_G_L_5_G_N_6_T_0" fill="freeze" keyTimes="0;1" path="M1816 1814 C1816,1814 1816,1814 1816,1814 " keyPoints="0;1" keySplines="0 0 0 0" calcMode="spline"/><animateTransform repeatCount="indefinite" dur="1.3166667s" begin="0s" xlink:href="#_R_G_L_0_G_L_5_G_N_6_T_0" fill="freeze" attributeName="transform" from="0" to="0" type="rotate" additive="sum" keyTimes="0;1" values="0;0" keySplines="0 0 0 0" calcMode="spline"/><animateTransform repeatCount="indefinite" dur="1.3166667s" begin="0s" xlink:href="#_R_G_L_0_G_L_5_G_N_6_T_0" fill="freeze" attributeName="transform" from="0 0" to="0 0" type="scale" additive="sum" keyTimes="0;1" values="0 0;0 0" keySplines="0 0 0 0" calcMode="spline"/><animateTransform repeatCount="indefinite" dur="1.3166667s" begin="0s" xlink:href="#_R_G_L_0_G_L_4_G" fill="freeze" attributeName="transform" from="0 0" to="0 0" type="scale" additive="sum" keyTimes="0;1" values="0 0;0 0" keySplines="0 0 0 0" calcMode="spline"/><animateTransform repeatCount="indefinite" dur="1.3166667s" begin="0s" xlink:href="#_R_G_L_0_G_L_4_G" fill="freeze" attributeName="transform" from="-241.982 -239.442" to="-241.982 -239.442" type="translate" additive="sum" keyTimes="0;1" values="-241.982 -239.442;-241.982 -239.442" keySplines="0 0 1 1" calcMode="spline"/><animateTransform repeatCount="indefinite" dur="1.3166667s" begin="0s" xlink:href="#_R_G_L_0_G_L_3_G" fill="freeze" attributeName="transform" from="0 0" to="0 0" type="scale" additive="sum" keyTimes="0;1" values="0 0;0 0" keySplines="0 0 0 0" calcMode="spline"/><animateTransform repeatCount="indefinite" dur="1.3166667s" begin="0s" xlink:href="#_R_G_L_0_G_L_3_G" fill="freeze" attributeName="transform" from="-185.935 -191.627" to="-185.935 -191.627" type="translate" additive="sum" keyTimes="0;1" values="-185.935 -191.627;-185.935 -191.627" keySplines="0 0 1 1" calcMode="spline"/><animateTransform repeatCount="indefinite" dur="1.3166667s" begin="0s" xlink:href="#_R_G_L_0_G_L_2_G" fill="freeze" attributeName="transform" from="0 0" to="0 0" type="scale" additive="sum" keyTimes="0;1" values="0 0;0 0" keySplines="0 0 0 0" calcMode="spline"/><animateTransform repeatCount="indefinite" dur="1.3166667s" begin="0s" xlink:href="#_R_G_L_0_G_L_2_G" fill="freeze" attributeName="transform" from="-324.111 -332.063" to="-324.111 -332.063" type="translate" additive="sum" keyTimes="0;1" values="-324.111 -332.063;-324.111 -332.063" keySplines="0 0 1 1" calcMode="spline"/><animateTransform repeatCount="indefinite" dur="1.3166667s" begin="0s" xlink:href="#_R_G_L_0_G_L_1_G" fill="freeze" attributeName="transform" from="0 0" to="0 0" type="scale" additive="sum" keyTimes="0;1" values="0 0;0 0" keySplines="0 0 0 0" calcMode="spline"/><animateTransform repeatCount="indefinite" dur="1.3166667s" begin="0s" xlink:href="#_R_G_L_0_G_L_1_G" fill="freeze" attributeName="transform" from="-144.264 -136.829" to="-144.264 -136.829" type="translate" additive="sum" keyTimes="0;1" values="-144.264 -136.829;-144.264 -136.829" keySplines="0 0 1 1" calcMode="spline"/><animateMotion repeatCount="indefinite" dur="1.3166667s" begin="0s" xlink:href="#_R_G_L_0_G_L_0_G" fill="freeze" keyTimes="0;0.2278481;0.5063291;0.7468354;1" path="M1745.91 1949.94 C1739.11,1869.12 1738.73,1744.53 1740.22,1762.24 C1741.89,1782.08 1745.91,1949.94 1745.91,1949.94 C1745.91,1949.94 1738.73,1744.53 1740.22,1762.24 C1741.89,1782.08 1745.91,1949.94 1745.91,1949.94 " keyPoints="0;0.25;0.5;0.75;1" keySplines="0.167 0.167 0 1;1 0 0.833 0.833;0.167 0.167 0 1;1 0 0.833 0.833" calcMode="spline"/><animateTransform repeatCount="indefinite" dur="1.3166667s" begin="0s" xlink:href="#_R_G_L_0_G_L_0_G" fill="freeze" attributeName="transform" from="-13" to="-13" type="rotate" additive="sum" keyTimes="0;0.5063291;1" values="-13;12;-13" keySplines="0.167 0.167 0.833 0.833;0.167 0.167 0.833 0.833" calcMode="spline"/><animateTransform repeatCount="indefinite" dur="1.3166667s" begin="0s" xlink:href="#_R_G_L_0_G_L_0_G" fill="freeze" attributeName="transform" from="-394.333 -963.504" to="-394.333 -963.504" type="translate" additive="sum" keyTimes="0;1" values="-394.333 -963.504;-394.333 -963.504" keySplines="0 0 1 1" calcMode="spline"/><animate attributeType="XML" attributeName="opacity" dur="1s" from="0" to="1" xlink:href="#time_group"/></defs><g id="_R_G"><g id="_R_G_L_0_G" transform=" translate(1020, 1020) translate(-1816, -1020)"><g id="_R_G_L_0_G_L_9_G_N_6_T_0"><g id="_R_G_L_0_G_L_9_G" transform=" translate(-155.348, 0.738)"><path id="_R_G_L_0_G_L_9_G_D_0_P_0" fill="#e8e8e8" fill-opacity="1" fill-rule="nonzero" d=" M0.25 114.96 C0.25,114.96 183.06,5.96 183.06,5.96 C304.61,0.25 349.43,226.34 180.03,244.56 C180.03,244.56 0.26,114.96 0.26,114.96 C0.26,114.96 0.25,114.96 0.25,114.96z "/></g></g><g id="_R_G_L_0_G_L_8_G_N_6_T_0"><g id="_R_G_L_0_G_L_8_G" transform=" translate(118.508, -13.667)"><path id="_R_G_L_0_G_L_8_G_D_0_P_0" fill="#e8e8e8" fill-opacity="1" fill-rule="nonzero" d=" M316.26 73.01 C316.26,73.01 117.29,207.97 117.29,207.97 C23.24,200.06 0.25,41.28 116.69,0.25 C116.69,0.25 316.26,73.01 316.26,73.01 C316.26,73.01 316.26,73.01 316.26,73.01z "/></g></g><g id="_R_G_L_0_G_L_7_G_N_6_T_0"><g id="_R_G_L_0_G_L_7_G" transform=" translate(126.119, 198.112)"><path id="_R_G_L_0_G_L_7_G_D_0_P_0" stroke="#f7e03b" stroke-linecap="round" stroke-linejoin="round" fill="none" stroke-width="85.25" stroke-opacity="1" d=" M128.54 110.45 C128.54,110.45 42.63,42.63 42.63,42.63 "/></g></g><g id="_R_G_L_0_G_L_6_G_N_6_T_0"><g id="_R_G_L_0_G_L_6_G" transform=" translate(-147.929, 215.897)"><path id="_R_G_L_0_G_L_6_G_D_0_P_0" stroke="#f7e03b" stroke-linecap="round" stroke-linejoin="round" fill="none" stroke-width="85.25" stroke-opacity="1" d=" M42.63 122.23 C42.63,122.23 117.75,42.63 117.75,42.63 "/></g></g><g id="_R_G_L_0_G_L_5_G_N_6_T_0"><g id="_R_G_L_0_G_L_5_G" transform=" translate(-22.597, -49.703) translate(-242.821, -304.377)"><path id="_R_G_L_0_G_L_5_G_D_0_P_0" fill="#fb4241" fill-opacity="1" fill-rule="nonzero" d=" M151.69 9.07 C176.83,0.25 209.03,26.82 223.62,68.41 C238.21,110 229.66,150.87 204.53,159.69 C179.39,168.51 147.18,141.94 132.59,100.34 C118.01,58.75 126.56,17.88 151.69,9.07z "/><path id="_R_G_L_0_G_L_5_G_D_1_P_0" fill="#fb4241" fill-opacity="1" fill-rule="nonzero" d=" M80.09 80.56 C102,65.41 140.08,82.52 165.15,118.77 C190.22,155.03 192.78,196.7 170.87,211.85 C148.95,227 110.87,209.89 85.81,173.63 C60.74,137.38 58.18,95.71 80.09,80.56z "/><path id="_R_G_L_0_G_L_5_G_D_2_P_0" fill="#e8e8e8" fill-opacity="1" fill-rule="nonzero" d=" M171.82 88.5 C171.82,88.5 287.28,82.55 287.28,82.55 C384.28,77.55 466.96,152.13 471.96,249.12 C471.96,249.12 480.39,412.88 480.39,412.88 C485.39,509.88 410.82,592.56 313.82,597.56 C313.82,597.56 198.36,603.51 198.36,603.51 C101.37,608.5 18.69,533.93 13.69,436.93 C13.69,436.93 5.25,273.17 5.25,273.17 C0.25,176.18 74.83,93.49 171.82,88.5z "/><path id="_R_G_L_0_G_L_5_G_D_3_P_0" fill="#ffffff" fill-opacity="1" fill-rule="nonzero" d=" M145.79 150.99 C192.67,148.57 232.94,190.49 235.73,244.62 C238.52,298.75 202.77,344.59 155.89,347 C109.01,349.42 68.75,307.5 65.96,253.37 C63.17,199.24 98.91,153.4 145.79,150.99z "/><path id="_R_G_L_0_G_L_5_G_D_4_P_0" fill="#ffffff" fill-opacity="1" fill-rule="nonzero" d=" M330.87 141.46 C377.75,139.04 418.01,180.96 420.8,235.09 C423.59,289.22 387.85,335.06 340.97,337.47 C294.09,339.89 253.82,297.97 251.03,243.84 C248.24,189.71 283.99,143.87 330.87,141.46z "/><path id="_R_G_L_0_G_L_5_G_D_5_P_0" fill="#031051" fill-opacity="1" fill-rule="nonzero" d=" M175.33 191.42 C201.88,190.06 224.68,213.8 226.26,244.45 C227.84,275.11 207.6,301.07 181.05,302.43 C154.5,303.8 131.7,280.06 130.12,249.41 C128.54,218.75 148.78,192.79 175.33,191.42z "/><path id="_R_G_L_0_G_L_5_G_D_6_P_0" fill="#031051" fill-opacity="1" fill-rule="nonzero" d=" M303.86 186.02 C330.41,184.65 353.21,208.39 354.79,239.05 C356.37,269.7 336.13,295.66 309.58,297.03 C283.03,298.4 260.23,274.66 258.65,244 C257.07,213.35 277.31,187.39 303.86,186.02z "/><path id="_R_G_L_0_G_L_5_G_D_7_P_0" fill="#f7e03b" fill-opacity="1" fill-rule="nonzero" d=" M249.94 299.07 C249.94,299.07 318.31,317.22 318.31,317.22 C318.31,317.22 300.74,325.26 302.15,339.6 C303.94,357.8 324.15,359.7 324.15,359.7 C305.68,369.81 273.52,375.58 262.43,370.98 C262.43,370.98 249.93,299.07 249.93,299.07 C249.93,299.07 249.94,299.07 249.94,299.07z "/><path id="_R_G_L_0_G_L_5_G_D_8_P_0" fill="#000000" fill-opacity="1" fill-rule="nonzero" d=" M315.08 316.98 C327.41,316.98 337.41,326.98 337.41,339.31 C337.41,351.64 327.41,361.63 315.08,361.63 C302.76,361.63 292.76,351.64 292.76,339.31 C292.76,326.98 302.76,316.98 315.08,316.98z "/></g></g><g id="_R_G_L_0_G_L_4_G" transform=" translate(2571.242, 1464.394)"><path id="_R_G_L_0_G_L_4_G_D_0_P_0" fill="#a220df" fill-opacity="1" fill-rule="nonzero" d=" M179.9 71.24 C179.9,71.24 145.91,194.77 145.91,194.77 C145.91,194.77 30.78,183.19 30.78,183.19 C30.78,183.19 86.75,259.92 86.75,259.92 C86.75,259.92 0.25,355.69 0.25,355.69 C0.25,355.69 130,355.69 130,355.69 C130,355.69 137.63,471.34 137.63,471.34 C137.63,471.34 234.29,402.23 234.29,402.23 C234.29,402.23 328.43,471.34 328.43,471.34 C328.43,471.34 305.53,332.31 305.53,332.31 C305.53,332.31 427.64,298.21 427.64,298.21 C427.64,298.21 330.97,240.2 330.97,240.2 C330.97,240.2 376.76,105.27 376.76,105.27 C376.76,105.27 236.84,185.94 236.84,185.94 C236.84,185.94 179.9,71.24 179.9,71.24z "/><path id="_R_G_L_0_G_L_4_G_D_1_P_0" fill="#a220df" fill-opacity="1" fill-rule="nonzero" d=" M263.15 92.63 C263.15,92.63 262.93,0.25 262.93,0.25 C262.93,0.25 327.16,29.47 327.16,29.47 C327.16,29.47 263.15,92.63 263.15,92.63z "/><path id="_R_G_L_0_G_L_4_G_D_2_P_0" fill="#a220df" fill-opacity="1" fill-rule="nonzero" d=" M26.85 427.4 C41,427.4 52.47,438.87 52.47,453.02 C52.47,467.16 41,478.63 26.85,478.63 C12.71,478.63 1.24,467.16 1.24,453.02 C1.24,438.87 12.71,427.4 26.85,427.4z "/><path id="_R_G_L_0_G_L_4_G_D_3_P_0" fill="#a220df" fill-opacity="1" fill-rule="nonzero" d=" M409.71 392.38 C409.71,392.38 483.72,413.59 483.72,413.59 C483.72,413.59 457.26,452.11 457.26,452.11 C457.26,452.11 409.71,392.38 409.71,392.38z "/></g><g id="_R_G_L_0_G_L_3_G" transform=" translate(998.646, 1485.355)"><path id="_R_G_L_0_G_L_3_G_D_0_P_0" fill="#a220df" fill-opacity="1" fill-rule="nonzero" d=" M132.87 20.38 C132.87,20.38 100.45,108.21 100.45,108.21 C100.45,108.21 12.91,172.01 12.91,172.01 C0.28,181.22 0.25,200.07 12.86,209.3 C12.86,209.3 81.22,259.4 81.22,259.4 C81.22,259.4 81.22,353.62 81.22,353.62 C81.22,371.99 101.62,383 116.98,372.93 C116.98,372.93 218.61,306.32 218.61,306.32 C218.61,306.32 338.84,326.62 338.84,326.62 C357.31,329.74 371.62,310.73 363.5,293.84 C363.5,293.84 318.33,199.86 318.33,199.86 C318.33,199.86 358.82,117.08 358.82,117.08 C366.67,101.03 354.1,82.52 336.28,83.91 C336.28,83.91 254.96,90.22 254.96,90.22 C254.96,90.22 170.27,11.48 170.27,11.48 C158.2,0.25 138.59,4.92 132.88,20.39 C132.88,20.39 132.87,20.38 132.87,20.38z "/></g><g id="_R_G_L_0_G_L_2_G" transform=" translate(1122.425, 580.966)"><path id="_R_G_L_0_G_L_2_G_D_0_P_0" stroke="#f7e03b" stroke-linecap="round" stroke-linejoin="round" fill="none" stroke-width="18.989" stroke-opacity="1" d=" M95.81 179.92 C95.81,179.92 603.21,490.56 603.21,490.56 "/><path id="_R_G_L_0_G_L_2_G_D_1_P_0" stroke="#f7e03b" stroke-linecap="round" stroke-linejoin="round" fill="none" stroke-width="18.989" stroke-opacity="1" d=" M504.83 81.54 C504.83,81.54 194.19,588.94 194.19,588.94 "/><path id="_R_G_L_0_G_L_2_G_D_2_P_0" stroke="#f7e03b" stroke-linecap="round" stroke-linejoin="round" fill="none" stroke-width="18.989" stroke-opacity="1" d=" M504.83 81.54 C504.83,81.54 194.19,588.94 194.19,588.94 "/><path id="_R_G_L_0_G_L_2_G_D_3_P_0" stroke="#f7e03b" stroke-linecap="round" stroke-linejoin="round" fill="none" stroke-width="18.989" stroke-opacity="1" d=" M279.94 46.02 C279.94,46.02 419.08,624.46 419.08,624.46 "/><path id="_R_G_L_0_G_L_2_G_D_4_P_0" stroke="#f7e03b" stroke-linecap="round" stroke-linejoin="round" fill="none" stroke-width="18.989" stroke-opacity="1" d=" M279.94 46.02 C279.94,46.02 419.08,624.46 419.08,624.46 "/><path id="_R_G_L_0_G_L_2_G_D_5_P_0" stroke="#f7e03b" stroke-linecap="round" stroke-linejoin="round" fill="none" stroke-width="18.989" stroke-opacity="1" d=" M638.73 265.68 C638.73,265.68 60.29,404.81 60.29,404.81 "/><path id="_R_G_L_0_G_L_2_G_D_6_P_0" fill="#f7e03b" fill-opacity="1" fill-rule="nonzero" d=" M546.98 0.25 C559.61,0.25 569.86,10.5 569.86,23.13 C569.86,35.77 559.61,46.02 546.98,46.02 C534.34,46.02 524.09,35.77 524.09,23.13 C524.09,10.5 534.34,0.25 546.98,0.25z "/><path id="_R_G_L_0_G_L_2_G_D_7_P_0" fill="#f7e03b" fill-opacity="1" fill-rule="nonzero" d=" M162.32 618.11 C174.96,618.11 185.21,628.35 185.21,640.99 C185.21,653.63 174.96,663.88 162.32,663.88 C149.69,663.88 139.44,653.63 139.44,640.99 C139.44,628.35 149.69,618.11 162.32,618.11z "/><path id="_R_G_L_0_G_L_2_G_D_8_P_0" fill="#f7e03b" fill-opacity="1" fill-rule="nonzero" d=" M0.25 271.67 C0.25,271.67 45.42,265.68 45.42,265.68 C45.42,265.68 69.96,227.36 69.96,227.36 C69.96,227.36 75.5,276.42 75.5,276.42 C75.5,276.42 114.43,302.96 114.43,302.96 C114.43,302.96 68.26,302.96 68.26,302.96 C68.26,302.96 39.65,342.2 39.65,342.2 C39.65,342.2 35.7,295.37 35.7,295.37 C35.7,295.37 0.25,271.67 0.25,271.67z "/><path id="_R_G_L_0_G_L_2_G_D_9_P_0" fill="#f7e03b" fill-opacity="1" fill-rule="nonzero" d=" M528.3 536.73 C528.3,536.73 539.84,558.19 539.84,558.19 C539.84,558.19 563.64,563.22 563.64,563.22 C563.64,563.22 540.15,575.27 540.15,575.27 C540.15,575.27 534.24,599.76 534.24,599.76 C534.24,599.76 525.5,576.66 525.5,576.66 C525.5,576.66 500.47,569.77 500.47,569.77 C500.47,569.77 523.15,558.94 523.15,558.94 C523.15,558.94 528.3,536.73 528.3,536.73z "/></g><g id="_R_G_L_0_G_L_1_G" transform=" translate(2631.309, 497.534)"><path id="_R_G_L_0_G_L_1_G_D_0_P_0" fill="#f7e03b" fill-opacity="1" fill-rule="nonzero" d=" M146.66 5.99 C146.66,5.99 91.1,68.53 91.1,68.53 C91.1,68.53 12.74,77.13 12.74,77.13 C4.75,78 0.25,86.79 4.23,93.79 C4.23,93.79 45.9,167.25 45.9,167.25 C45.9,167.25 21.76,251.11 21.76,251.11 C19.26,259.84 27.61,267.77 36.2,264.79 C36.2,264.79 141.56,228.3 141.56,228.3 C141.56,228.3 240.06,269.86 240.06,269.86 C248.46,273.41 257.35,265.97 255.34,257.08 C255.34,257.08 235.58,169.6 235.58,169.6 C235.58,169.6 283.26,104.76 283.26,104.76 C288.28,97.94 284.21,88.23 275.82,87.03 C275.82,87.03 203.85,76.75 203.85,76.75 C203.85,76.75 164.78,7.9 164.78,7.9 C161,1.22 151.77,0.25 146.66,5.98 C146.66,5.98 146.66,5.99 146.66,5.99z "/></g><g id="_R_G_L_0_G_L_0_G"><path id="_R_G_L_0_G_L_0_G_D_0_P_0" fill="#f7e03b" fill-opacity="1" fill-rule="nonzero" d=" M551.95 516.37 C551.95,516.37 99.05,774.64 99.05,774.64 C99.05,774.64 0.25,969.6 0.25,969.6 C0.25,969.6 101.32,970.14 101.32,970.14 C101.32,970.14 627.72,669.97 627.72,669.97 C627.72,669.97 551.95,516.37 551.95,516.37z "/><path id="_R_G_L_0_G_L_0_G_D_1_P_0" fill="#f7e03b" fill-opacity="1" fill-rule="nonzero" d=" M393.09 194.34 C393.09,194.34 234.97,506.39 234.97,506.39 C234.97,506.39 478.52,367.51 478.52,367.51 C478.52,367.51 393.09,194.34 393.09,194.34z "/><path id="_R_G_L_0_G_L_0_G_D_2_P_0" fill="#f7e03b" fill-opacity="1" fill-rule="nonzero" d=" M432.7 971.91 C432.7,971.91 777.59,973.77 777.59,973.77 C777.59,973.77 701.16,818.84 701.16,818.84 C701.16,818.84 432.7,971.91 432.7,971.91z "/><path id="_R_G_L_0_G_L_0_G_D_3_P_0" fill="#f953d2" fill-opacity="1" fill-rule="nonzero" d=" M627.72 669.97 C627.72,669.97 101.32,970.14 101.32,970.14 C101.32,970.14 432.7,971.91 432.7,971.91 C432.7,971.91 701.16,818.83 701.16,818.83 C701.16,818.83 627.72,669.97 627.72,669.97z "/><path id="_R_G_L_0_G_L_0_G_D_4_P_0" fill="#f953d2" fill-opacity="1" fill-rule="nonzero" d=" M478.52 367.51 C478.52,367.51 234.97,506.39 234.97,506.39 C234.97,506.39 99.05,774.63 99.05,774.63 C99.05,774.63 551.95,516.37 551.95,516.37 C551.95,516.37 478.52,367.51 478.52,367.51z "/><path id="_R_G_L_0_G_L_0_G_D_5_P_0" fill="#f953d2" fill-opacity="1" fill-rule="nonzero" d=" M360.63 0.25 C360.63,0.25 395.14,98.29 395.14,98.29 C395.14,98.29 451.54,0.73 451.54,0.73 C451.54,0.73 530.03,50.09 530.03,50.09 C530.03,50.09 455.64,124.87 455.64,124.87 C455.64,124.87 541.28,83.6 541.28,83.6 C541.28,83.6 555.79,201.4 555.79,201.4 C555.79,201.4 438.51,177.29 438.51,177.29 C438.51,177.29 544.66,248.23 544.66,248.23 C544.66,248.23 473.18,311.51 473.18,311.51 C473.18,311.51 394.55,208.08 394.55,208.08 C394.55,208.08 316.73,308.49 316.73,308.49 C316.73,308.49 264.13,228.86 264.13,228.86 C264.13,228.86 359.66,179.25 359.66,179.25 C359.66,179.25 246.54,198.3 246.54,198.3 C246.54,198.3 258.29,87.12 258.29,87.12 C258.29,87.12 359.96,124.36 359.96,124.36 C359.96,124.36 280.49,47.56 280.49,47.56 C280.49,47.56 360.63,0.25 360.63,0.25z "/></g></g></g><g id="time_group"/></svg>