<?xml version="1.0" encoding="UTF-8"?>
<svg xmlns="http://www.w3.org/2000/svg" viewBox="0 0 150 150">
  <path d="m85 57h19v13h-19z" fill="#fff"></path>
  <g fill="#f7e03b" stroke="#fff" stroke-linejoin="round" stroke-width="5">
    <path d="m106.5 27.2c-.3-.7-1-1.2-1.8-1.4-.8-.1-1.6.1-2.2.6l-8.7 8.2-11 .5c-.8 0-1.6.5-2 1.1s-.5 1.5-.2 2.3l3.8 9.5-3.4 11.3c-.2.8-.1 1.7.5 2.3.5.6 1.4 1 2.2.9l13-1.4 12.4 8c.8.5 1.7.5 2.5.1s1.3-1.2 1.4-2.1l.6-12.4 9.8-6.2c.8-.5 1.2-1.3 1.2-2.2s-.6-1.7-1.4-2.1l-11.3-5.6z"></path>
    <path d="m56.9 46.2-10.3 18-17.9 6.3c-2.9 1-4 4.7-2 7.1l10.9 13.5v20.2c0 3.2 3.3 5.4 6.3 4.1l20.8-8.9 24.4 6.9c3.3.9 6.4-2.1 5.6-5.4l-5.2-20.5 12.9-14.8c2.3-2.7.8-6.8-2.7-7.4l-20.7-3.4-14.9-16.4c-2-2.3-5.7-1.9-7.2.7z"></path>
  </g>
</svg>
