<?xml version="1.0" encoding="UTF-8"?>
<svg id="Layer_8" data-name="Layer 8" xmlns="http://www.w3.org/2000/svg" viewBox="0 0 2040 2040" width="2040" height="2040">
  <defs>
    <style>
      .cls-1 {
        stroke-linecap: round;
        stroke-width: 85.25px;
      }

      .cls-1, .cls-2 {
        fill: none;
        stroke: #f7e03b;
        stroke-miterlimit: 10;
      }

      .cls-3 {
        fill: #f953d2;
      }

      .cls-4 {
        fill: #031051;
      }

      .cls-5 {
        fill: #fff;
      }

      .cls-6 {
        fill: #fb4241;
      }

      .cls-2 {
        stroke-width: 18.99px;
      }

      .cls-7 {
        fill: #f7e03b;
      }

      .cls-8 {
        fill: #a220df;
      }

      .cls-9 {
        fill: #e8e8e8;
      }
    </style>
  </defs>
  <g>
    <g>
      <polygon class="cls-7" points="1336.37 711.25 832.37 844.69 686.87 1007.78 784.42 1034.23 1370.2 879.15 1336.37 711.25"/>
      <polygon class="cls-7" points="1265.44 359.24 1032.55 620.28 1303.58 548.53 1265.44 359.24"/>
      <polygon class="cls-7" points="1104.26 1120.96 1437.12 1211.22 1403 1041.87 1104.26 1120.96"/>
      <polygon class="cls-3" points="1370.2 879.15 784.42 1034.23 1104.26 1120.96 1403 1041.87 1370.2 879.15"/>
      <polygon class="cls-3" points="1303.58 548.53 1032.55 620.28 832.37 844.69 1336.37 711.25 1303.58 548.53"/>
    </g>
    <polygon class="cls-3" points="1283.85 163.32 1292.05 266.93 1371.59 187.1 1434.8 254.95 1343.71 308.14 1437.07 290.22 1420.87 407.8 1313.7 354.41 1398.11 450.21 1312.78 493.03 1263.32 372.9 1162.34 449.98 1131.94 359.53 1236.99 336.08 1122.77 325.48 1162.65 221.03 1251.36 283.1 1194.25 188.48 1283.85 163.32"/>
  </g>
  <g>
    <line class="cls-1" x1="1215.36" y1="1802.02" x2="1129.45" y2="1734.2"/>
    <line class="cls-1" x1="860.79" y1="1825.7" x2="935.91" y2="1746.09"/>
    <ellipse class="cls-6" cx="958.97" cy="1300.3" rx="48.23" ry="79.81" transform="translate(-376.35 390.73) rotate(-19.33)"/>
    <ellipse class="cls-6" cx="906.34" cy="1362.12" rx="48.23" ry="79.81" transform="translate(-613.81 757.16) rotate(-34.66)"/>
    <rect class="cls-9" x="790.02" y="1301.1" width="467.33" height="515.69" rx="175.86" ry="175.86" transform="translate(-78.87 54.75) rotate(-2.95)"/>
    <path class="cls-9" d="M716.34,1563.3l82.08-73.9,9.56,10.62c39.89,44.3,36.31,112.66-7.99,152.55l-1.8,1.62-81.84-90.89h0Z"/>
    <path class="cls-9" d="M1322.79,1525.23l-65.93,88.61-11.47-8.53c-47.83-35.59-57.77-103.31-22.18-151.14l1.45-1.94,98.13,73.01h0Z"/>
    <ellipse class="cls-5" cx="931.71" cy="1464.91" rx="85" ry="98.14" transform="translate(-74.16 49.89) rotate(-2.95)"/>
    <ellipse class="cls-5" cx="1116.78" cy="1455.38" rx="85" ry="98.14" transform="translate(-73.42 59.4) rotate(-2.95)"/>
    <ellipse class="cls-4" cx="959.05" cy="1462.85" rx="48.13" ry="55.58" transform="translate(-74.01 51.3) rotate(-2.95)"/>
    <ellipse class="cls-4" cx="1087.58" cy="1457.44" rx="48.13" ry="55.58" transform="translate(-73.57 57.9) rotate(-2.95)"/>
    <path class="cls-7" d="M1030.8,1514.99l68.38,18.14s-17.58,8.04-16.16,22.38c1.8,18.2,22.01,20.1,22.01,20.1-18.47,10.11-50.63,15.88-61.72,11.28l-12.5-71.91h0Z"/>
    <circle cx="1095.95" cy="1555.23" r="22.32"/>
  </g>
  <line class="cls-2" x1="164.41" y1="428.82" x2="671.8" y2="739.46"/>
  <line class="cls-2" x1="573.42" y1="330.44" x2="262.79" y2="837.84"/>
  <line class="cls-2" x1="573.42" y1="330.44" x2="262.79" y2="837.84"/>
  <line class="cls-2" x1="348.54" y1="294.92" x2="487.67" y2="873.36"/>
  <line class="cls-2" x1="348.54" y1="294.92" x2="487.67" y2="873.36"/>
  <line class="cls-2" x1="707.32" y1="514.58" x2="128.89" y2="653.71"/>
  <circle class="cls-7" cx="615.57" cy="272.04" r="22.88"/>
  <circle class="cls-7" cx="230.92" cy="889.9" r="22.88"/>
  <polygon class="cls-7" points="68.85 520.57 114.01 514.58 138.56 476.26 144.09 525.32 183.02 551.86 136.85 551.86 108.24 591.1 104.29 544.28 68.85 520.57"/>
  <polygon class="cls-7" points="596.9 785.63 608.43 807.09 632.24 812.13 608.74 824.17 602.83 848.66 594.1 825.57 569.07 818.67 591.74 807.85 596.9 785.63"/>
  <polygon class="cls-8" points="1699.44 1296.19 1665.45 1419.72 1550.32 1408.14 1606.29 1484.87 1519.79 1580.64 1649.54 1580.64 1657.17 1696.29 1753.83 1627.18 1847.97 1696.29 1825.07 1557.26 1947.18 1523.17 1850.51 1465.15 1896.3 1330.23 1756.38 1410.89 1699.44 1296.19"/>
  <polygon class="cls-8" points="1782.69 1317.58 1782.47 1225.2 1846.7 1254.42 1782.69 1317.58"/>
  <circle class="cls-8" cx="1546.39" cy="1677.97" r="25.62"/>
  <polygon class="cls-8" points="1929.25 1617.33 2003.26 1638.55 1976.8 1677.07 1929.25 1617.33"/>
  <path class="cls-7" d="M1813.99,366.7l-55.56,62.53-78.35,8.6c-8,.88-12.49,9.66-8.52,16.67l41.67,73.46-24.14,83.86c-2.51,8.73,5.85,16.66,14.43,13.68l105.36-36.49,98.5,41.56c8.4,3.54,17.29-3.89,15.28-12.79l-19.76-87.47,47.68-64.85c5.01-6.82.94-16.52-7.44-17.73l-71.98-10.28-39.06-68.85c-3.79-6.68-13.01-7.65-18.12-1.91h0Z"/>
  <path class="cls-8" d="M215.86,1314.11l-32.42,87.82-87.54,63.8c-12.64,9.21-12.66,28.06-.05,37.29l68.36,50.1v94.22c0,18.37,20.4,29.39,35.76,19.31l101.62-66.61,120.24,20.3c18.47,3.12,32.78-15.9,24.66-32.78l-45.17-93.98,40.49-82.78c7.85-16.06-4.72-34.56-22.53-33.17l-81.32,6.31-84.69-78.75c-12.08-11.22-31.68-6.55-37.39,8.92h0Z"/>
</svg>