<?xml version="1.0" encoding="UTF-8"?>
<svg xmlns="http://www.w3.org/2000/svg" viewBox="0 0 150 150">
  <defs>
    <style>
      .cls-1, .cls-2 {
        fill: #fff;
      }

      .cls-2 {
        stroke-width: 18.41px;
      }

      .cls-2, .cls-3 {
        stroke: #2fc0eb;
      }

      .cls-2, .cls-3, .cls-4 {
        stroke-miterlimit: 10;
      }

      .cls-2, .cls-4 {
        stroke-linecap: round;
      }

      .cls-5 {
        fill: #f7e03b;
      }

      .cls-6 {
        fill: #e5296b;
      }

      .cls-3 {
        stroke-width: 9.21px;
      }

      .cls-3, .cls-4 {
        fill: none;
      }

      .cls-7 {
        fill: #2ae8d1;
      }

      .cls-4 {
        stroke: #e5296b;
        stroke-width: 5.36px;
      }
    </style>
  </defs>
  <g id="Layer_4_copy" data-name="Layer 4 copy">
    <g>
      <path class="cls-1" d="M45.72,134.99c-5.94,0-10.95-4.02-11.92-9.57l-6.64-38.05c-3.32-2.03-5.34-5.6-5.34-9.54,0-6.18,5.03-11.21,11.21-11.21h1.32l-3.78-18.77c-1.92-9.54-.08-18.6,5.05-24.86,4.05-4.94,9.8-7.67,16.18-7.67h7.37c12.72,0,24.96,10.38,29.81,24.98,1.06-.33,2.16-.49,3.27-.49,2.12,0,4.17.61,5.94,1.75l2.46,1.59,4.56-7.04-.54-.35c-2.46-1.59-4.15-4.05-4.76-6.92-.61-2.87-.08-5.8,1.51-8.26l.85-1.32c1.59-2.46,4.05-4.15,6.92-4.76.76-.16,1.55-.25,2.33-.25,2.1,0,4.16.61,5.93,1.76l8.95,5.79c2.46,1.59,4.15,4.05,4.76,6.92.61,2.87.08,5.8-1.51,8.26l-.85,1.32c-1.59,2.45-4.04,4.14-6.92,4.76-.77.16-1.55.25-2.33.25-2.11,0-4.16-.61-5.94-1.76l-.54-.35-4.56,7.04,2.58,1.67c2.46,1.59,4.15,4.05,4.77,6.93.62,2.88.08,5.82-1.51,8.28l-.11.17c.31.44.6.88.88,1.32h3.45c6.18,0,11.21,5.03,11.21,11.21,0,4.11-2.23,7.84-5.78,9.8l-5.26,37.6c-.91,5.67-5.93,9.75-11.95,9.75h-61.06ZM51.8,28.53c-2.42,0-4.43.95-5.96,2.83-2.57,3.14-3.44,8.33-2.32,13.89l2.18,10.83c8.08-5.43,18.42-8.39,29.47-8.39.71,0,1.43.01,2.16.04-2.12-10.24-10.58-19.19-18.16-19.19h-7.37ZM118.7,33.7c.26.17.55.25.86.25.12,0,.24-.01.35-.04.43-.09.79-.33,1.02-.69l.86-1.32c.23-.36.31-.78.21-1.21-.09-.43-.33-.79-.69-1.02l-8.95-5.79c-.26-.17-.55-.25-.86-.25-.12,0-.24.01-.35.04-.43.09-.79.33-1.02.69l-.85,1.32c-.23.36-.31.78-.22,1.21.09.43.33.79.69,1.02l4.46,2.89s4.49,2.9,4.49,2.9Z"></path>
      <path class="cls-1" d="M111.51,16.26c1.71,0,3.38.49,4.85,1.44l8.95,5.79c2.01,1.3,3.39,3.31,3.89,5.66.5,2.35.06,4.75-1.24,6.76l-.85,1.32c-1.3,2.01-3.31,3.39-5.66,3.89-.63.14-1.27.2-1.91.2-1.71,0-3.38-.49-4.85-1.44l-2.22-1.44-6.73,10.4,4.26,2.76c4.15,2.69,5.35,8.29,2.66,12.45l-.86,1.33c.81,1.05,1.53,2.13,2.17,3.25h4.59c5.08,0,9.21,4.12,9.21,9.21,0,3.81-2.31,7.08-5.61,8.48l-5.41,38.66c-.74,4.62-4.98,8.03-9.97,8.03h-61.06c-4.94,0-9.15-3.35-9.95-7.91l-6.8-39c-3.05-1.5-5.15-4.63-5.15-8.25,0-5.08,4.12-9.21,9.21-9.21h3.34c.1-.18.21-.36.32-.54l-4.15-20.62c-1.8-8.95-.11-17.4,4.63-23.2,3.66-4.47,8.86-6.94,14.63-6.94h7.37c12.43,0,24.55,11.09,28.55,25.7,1.38-.79,2.95-1.21,4.54-1.21,1.67,0,3.36.46,4.86,1.43l4.13,2.68,6.73-10.4-2.22-1.44c-2.01-1.3-3.39-3.31-3.89-5.66-.5-2.35-.06-4.75,1.24-6.75l.85-1.32c1.3-2.01,3.31-3.39,5.66-3.89.64-.14,1.27-.2,1.91-.2M119.56,35.96c.26,0,.52-.03.77-.08.95-.2,1.76-.76,2.28-1.56l.85-1.32c.52-.8.7-1.77.49-2.72-.2-.95-.76-1.76-1.56-2.28l-8.95-5.79c-.59-.38-1.26-.58-1.94-.58-.26,0-.52.03-.78.08-.95.2-1.76.76-2.28,1.56l-.85,1.32c-.52.8-.7,1.77-.49,2.72.2.95.76,1.76,1.56,2.28l4.47,2.9s0,0,0,0c0,0,0,0,0,0l4.47,2.89c.59.38,1.26.58,1.95.58M44.35,59.53c7.67-6.05,18.64-9.85,30.82-9.85,1.57,0,3.11.07,4.63.19l-.49-2.41c-2.28-11.34-11.51-20.93-20.15-20.93h-7.37c-3.01,0-5.6,1.23-7.51,3.56-2.95,3.6-3.97,9.41-2.73,15.55l2.79,13.89M111.51,12.26s0,0,0,0c-.92,0-1.84.1-2.75.29-3.39.72-6.29,2.72-8.18,5.63l-.85,1.32c-1.88,2.9-2.52,6.37-1.79,9.77.63,2.95,2.22,5.53,4.53,7.39l-2.42,3.74-.78-.5c-2.1-1.36-4.53-2.08-7.03-2.08-.67,0-1.33.05-1.98.15-5.49-14.49-18.04-24.64-31.1-24.64h-7.37c-7,0-13.29,2.98-17.73,8.4-5.51,6.73-7.5,16.39-5.46,26.52l3.3,16.42c-6.76.57-12.09,6.25-12.09,13.16,0,4.33,2.07,8.28,5.52,10.73l6.49,37.21c1.13,6.5,6.98,11.22,13.89,11.22h61.06c7,0,12.86-4.79,13.92-11.39,0-.03,0-.05.01-.08l5.13-36.66c3.66-2.41,5.93-6.53,5.93-11.02,0-7.28-5.92-13.21-13.21-13.21h-1.66c2.69-5.78.77-12.82-4.73-16.39l-.9-.58,2.42-3.74c1.81.92,3.81,1.4,5.85,1.4.92,0,1.84-.1,2.74-.29,3.39-.73,6.3-2.73,8.18-5.63l.85-1.31c1.88-2.91,2.52-6.38,1.79-9.77-.72-3.39-2.72-6.3-5.63-8.18l-8.95-5.79c-2.1-1.36-4.53-2.08-7.02-2.08h0ZM111.17,26.44l.43-.67,8.3,5.37-.43.67-4.11-2.66s-.03-.02-.04-.03c-.01,0-.02-.01-.03-.02l-4.11-2.66h0ZM47.09,52.85l-1.61-7.99c-.99-4.9-.26-9.59,1.91-12.23,1.15-1.41,2.6-2.1,4.42-2.1h7.37c6.13,0,12.94,6.83,15.57,15.15-10.18.07-19.77,2.58-27.65,7.16h0Z"></path>
    </g>
    <polygon class="cls-1" points="122.3 29.1 110.8 23 108.8 27.11 119.16 34.14 122.3 29.1"></polygon>
  </g>
  <g id="Layer_4" data-name="Layer 4">
    <path class="cls-3" d="M59.17,21.93h-7.37c-10.84,0-17.48,11.08-14.76,24.62l5.14,25.54c.92,4.56,4.65,8.29,8.3,8.29h33.52c3.65,0,5.88-3.73,4.97-8.29l-5.14-25.54c-2.72-13.54-13.82-24.62-24.66-24.62Z"></path>
    <ellipse class="cls-5" cx="75.17" cy="80.38" rx="42" ry="30.69"></ellipse>
    <path class="cls-7" d="M45.72,132.99h61.06c4.99,0,9.23-3.41,9.97-8.03l6.24-44.59H27.97l7.8,44.7c.8,4.56,5.01,7.91,9.95,7.91Z"></path>
    <g>
      <g>
        <rect class="cls-4" x="103.91" y="21.71" width="23.25" height="14.16" rx="6.29" ry="6.29" transform="translate(34.2 -58.17) rotate(32.92)"></rect>
        <line class="cls-4" x1="103.14" y1="47.92" x2="111.68" y2="34.73"></line>
      </g>
      <rect class="cls-6" x="79.76" y="45.32" width="33.36" height="26.18" rx="9" ry="9" transform="translate(47.24 -43.04) rotate(32.92)"></rect>
    </g>
    <path class="cls-5" d="M32.23,80.75c0-13.54,18.8-24.51,42-24.51s42,10.98,42,24.51"></path>
    <line class="cls-2" x1="33.03" y1="77.83" x2="118.56" y2="77.83"></line>
    <path class="cls-3" d="M51.8,21.93c-10.84,0-17.48,11.08-14.76,24.62l5.14,25.54c.92,4.56,4.65,8.29,8.3,8.29"></path>
    <rect class="cls-5" x="64.3" y="96.5" width="26.69" height="26.69" transform="translate(43.77 -20.34) rotate(20.67)"></rect>
    <rect class="cls-5" x="64.3" y="96.5" width="26.69" height="26.69" transform="translate(145.75 -6.16) rotate(65.67)"></rect>
  </g>
</svg>
