<?xml version="1.0" encoding="UTF-8"?>
<svg xmlns="http://www.w3.org/2000/svg" id="Layer_15" data-name="Layer 15" viewBox="0 0 200 200">
  <defs>
    <style>
      .cls-1 {
        fill: #f5d238;
      }

      .cls-2 {
        fill: #f7e03b;
      }
    </style>
  </defs>
  <rect class="cls-2" width="200" height="200"></rect>
  <g>
    <path class="cls-1" d="M171.69,194.43c0,.18,0,.37-.02.55-.13,1.74-.9,3.48-2.06,5.02h-8.21l.2-2.09.29-2.95.6-6.13c3-.02,5.67.18,7.35,1.4.67.48,1.19,1.13,1.5,2,.22.62.34,1.34.35,2.2Z"></path>
    <g>
      <path class="cls-1" d="M200,153.49v17.41c-3.5,2.97-7.33,6.05-11.35,9.13-5.64,4.31-11.73,8.63-17.31,12.2-3.54,2.27-6.87,4.23-9.74,5.68-1.78.91-3.38,1.62-4.75,2.09h-5.47c-.3-.2-.52-.44-.69-.66-1.92-2.52.02-6.1,7.16-13.21,1.41-1.41,2.99-2.9,4.69-4.44h.01c.75-.7,1.52-1.39,2.32-2.1.24-.21.48-.42.72-.62,0-.01,0-.01.02-.01,1.28-1.14,2.59-2.25,3.97-3.4h0c.52-.45,1.06-.89,1.6-1.33.53-.45,1.08-.89,1.63-1.33,1.1-.89,2.23-1.78,3.37-2.68.51-.41,1.03-.81,1.55-1.21.52-.4,1.04-.8,1.56-1.2h.01c.59-.46,1.19-.92,1.8-1.38.76-.57,1.54-1.14,2.31-1.71,1.34-.99,2.7-1.97,4.05-2.92,4.31-3.07,8.62-5.94,12.54-8.31Z"></path>
      <path class="cls-2" d="M180.53,169.37c-.07-.16-.15-.31-.23-.45-.28-.51-.62-.88-1.01-1.11-.52.4-1.04.8-1.56,1.2-.52.4-1.04.8-1.55,1.21-1.14.9-2.27,1.79-3.37,2.68-.55.44-1.1.88-1.63,1.33-.54.44-1.08.88-1.6,1.32h0c-.04.13-.06.25-.08.36-.03.12-.05.23-.06.34-.03.22-.05.42-.05.61,0,.12.01.23.02.34.01.11.02.21.04.3.02.1.04.19.07.27.04.13.08.24.14.35.02.04.04.08.06.12.06.11.13.21.2.3,3.29-2.79,6.93-5.72,10.81-8.68-.06-.18-.12-.34-.2-.49ZM180.53,169.37c-.07-.16-.15-.31-.23-.45-.28-.51-.62-.88-1.01-1.11-.52.4-1.04.8-1.56,1.2-.52.4-1.04.8-1.55,1.21-1.14.9-2.27,1.79-3.37,2.68-.55.44-1.1.88-1.63,1.33-.54.44-1.08.88-1.6,1.32h0c-.04.13-.06.25-.08.36-.03.12-.05.23-.06.34-.03.22-.05.42-.05.61,0,.12.01.23.02.34.01.11.02.21.04.3.02.1.04.19.07.27.04.13.08.24.14.35.02.04.04.08.06.12.06.11.13.21.2.3,3.29-2.79,6.93-5.72,10.81-8.68-.06-.18-.12-.34-.2-.49ZM180.53,169.37c-.07-.16-.15-.31-.23-.45-.28-.51-.62-.88-1.01-1.11-.52.4-1.04.8-1.56,1.2-.52.4-1.04.8-1.55,1.21-1.14.9-2.27,1.79-3.37,2.68-.55.44-1.1.88-1.63,1.33-.54.44-1.08.88-1.6,1.32h0c-.04.13-.06.25-.08.36-.03.12-.05.23-.06.34-.03.22-.05.42-.05.61,0,.12.01.23.02.34.01.11.02.21.04.3.02.1.04.19.07.27.04.13.08.24.14.35.02.04.04.08.06.12.06.11.13.21.2.3,3.29-2.79,6.93-5.72,10.81-8.68-.06-.18-.12-.34-.2-.49ZM180.53,169.37c-.07-.16-.15-.31-.23-.45-.28-.51-.62-.88-1.01-1.11-.52.4-1.04.8-1.56,1.2-.52.4-1.04.8-1.55,1.21-1.14.9-2.27,1.79-3.37,2.68-.55.44-1.1.88-1.63,1.33-.54.44-1.08.88-1.6,1.32h0c-.04.13-.06.25-.08.36-.03.12-.05.23-.06.34-.03.22-.05.42-.05.61,0,.12.01.23.02.34.01.11.02.21.04.3.02.1.04.19.07.27.04.13.08.24.14.35.02.04.04.08.06.12.06.11.13.21.2.3,3.29-2.79,6.93-5.72,10.81-8.68-.06-.18-.12-.34-.2-.49ZM180.53,169.37c-.07-.16-.15-.31-.23-.45-.28-.51-.62-.88-1.01-1.11-.52.4-1.04.8-1.56,1.2-.52.4-1.04.8-1.55,1.21-1.14.9-2.27,1.79-3.37,2.68-.55.44-1.1.88-1.63,1.33-.54.44-1.08.88-1.6,1.32h0c-.04.13-.06.25-.08.36-.03.12-.05.23-.06.34-.03.22-.05.42-.05.61,0,.12.01.23.02.34.01.11.02.21.04.3.02.1.04.19.07.27.04.13.08.24.14.35.02.04.04.08.06.12.06.11.13.21.2.3,3.29-2.79,6.93-5.72,10.81-8.68-.06-.18-.12-.34-.2-.49ZM180.53,169.37c-.07-.16-.15-.31-.23-.45-.28-.51-.62-.88-1.01-1.11-.52.4-1.04.8-1.56,1.2-.52.4-1.04.8-1.55,1.21-1.14.9-2.27,1.79-3.37,2.68-.55.44-1.1.88-1.63,1.33-.54.44-1.08.88-1.6,1.32h0c-.04.13-.06.25-.08.36-.03.12-.05.23-.06.34-.03.22-.05.42-.05.61,0,.12.01.23.02.34.01.11.02.21.04.3.02.1.04.19.07.27.04.13.08.24.14.35.02.04.04.08.06.12.06.11.13.21.2.3,3.29-2.79,6.93-5.72,10.81-8.68-.06-.18-.12-.34-.2-.49ZM181.29,163.18c-1.56,1.15-2.77,2.07-3.51,2.63-4.81,3.67-9.35,7.36-13.38,10.86-3.12,2.71-5.93,5.31-8.32,7.68-4.28,4.27-10.62,10.58-7.93,15.65h14.86c2.74-1.4,5.71-3.15,8.66-5.02,8.1-5.11,16.02-11.07,18.5-12.96,3.45-2.63,6.75-5.28,9.83-7.85v-6.57c-3.81,3.3-8.17,6.85-12.87,10.44-6.18,4.72-12.13,8.89-17.29,12.19-2.94,1.87-5.62,3.47-7.95,4.73-3.83,2.06-6.71,3.22-8.21,3.22-.48,0-.81-.12-1-.36-1.02-1.34,2.88-6.2,9.77-12.65,1.15-1.08,2.38-2.2,3.69-3.36.94-.83,1.92-1.68,2.93-2.55.28-.24.56-.48.85-.72,3.29-2.79,6.93-5.72,10.81-8.68.03-.02.06-.05.09-.07.36-.28.72-.55,1.08-.83.99-.74,1.97-1.48,2.94-2.19,1.62-1.2,3.22-2.35,4.78-3.45,3.71-2.62,7.22-4.94,10.38-6.91v-5.84c-6.88,4.05-14.22,9.29-18.71,12.61ZM180.53,169.37c-.07-.16-.15-.31-.23-.45-.28-.51-.62-.88-1.01-1.11-.52.4-1.04.8-1.56,1.2-.52.4-1.04.8-1.55,1.21-1.14.9-2.27,1.79-3.37,2.68-.55.44-1.1.88-1.63,1.33-.54.44-1.08.88-1.6,1.32h0c-.04.13-.06.25-.08.36-.03.12-.05.23-.06.34-.03.22-.05.42-.05.61,0,.12.01.23.02.34.01.11.02.21.04.3.02.1.04.19.07.27.04.13.08.24.14.35.02.04.04.08.06.12.06.11.13.21.2.3,3.29-2.79,6.93-5.72,10.81-8.68-.06-.18-.12-.34-.2-.49ZM180.53,169.37c-.07-.16-.15-.31-.23-.45-.28-.51-.62-.88-1.01-1.11-.52.4-1.04.8-1.56,1.2-.52.4-1.04.8-1.55,1.21-1.14.9-2.27,1.79-3.37,2.68-.55.44-1.1.88-1.63,1.33-.54.44-1.08.88-1.6,1.32h0c-.04.13-.06.25-.08.36-.03.12-.05.23-.06.34-.03.22-.05.42-.05.61,0,.12.01.23.02.34.01.11.02.21.04.3.02.1.04.19.07.27.04.13.08.24.14.35.02.04.04.08.06.12.06.11.13.21.2.3,3.29-2.79,6.93-5.72,10.81-8.68-.06-.18-.12-.34-.2-.49ZM180.53,169.37c-.07-.16-.15-.31-.23-.45-.28-.51-.62-.88-1.01-1.11-.52.4-1.04.8-1.56,1.2-.52.4-1.04.8-1.55,1.21-1.14.9-2.27,1.79-3.37,2.68-.55.44-1.1.88-1.63,1.33-.54.44-1.08.88-1.6,1.32h0c-.04.13-.06.25-.08.36-.03.12-.05.23-.06.34-.03.22-.05.42-.05.61,0,.12.01.23.02.34.01.11.02.21.04.3.02.1.04.19.07.27.04.13.08.24.14.35.02.04.04.08.06.12.06.11.13.21.2.3,3.29-2.79,6.93-5.72,10.81-8.68-.06-.18-.12-.34-.2-.49ZM180.53,169.37c-.07-.16-.15-.31-.23-.45-.28-.51-.62-.88-1.01-1.11-.52.4-1.04.8-1.56,1.2-.52.4-1.04.8-1.55,1.21-1.14.9-2.27,1.79-3.37,2.68-.55.44-1.1.88-1.63,1.33-.54.44-1.08.88-1.6,1.32h0c-.04.13-.06.25-.08.36-.03.12-.05.23-.06.34-.03.22-.05.42-.05.61,0,.12.01.23.02.34.01.11.02.21.04.3.02.1.04.19.07.27.04.13.08.24.14.35.02.04.04.08.06.12.06.11.13.21.2.3,3.29-2.79,6.93-5.72,10.81-8.68-.06-.18-.12-.34-.2-.49ZM180.53,169.37c-.07-.16-.15-.31-.23-.45-.28-.51-.62-.88-1.01-1.11-.52.4-1.04.8-1.56,1.2-.52.4-1.04.8-1.55,1.21-1.14.9-2.27,1.79-3.37,2.68-.55.44-1.1.88-1.63,1.33-.54.44-1.08.88-1.6,1.32h0c-.04.13-.06.25-.08.36-.03.12-.05.23-.06.34-.03.22-.05.42-.05.61,0,.12.01.23.02.34.01.11.02.21.04.3.02.1.04.19.07.27.04.13.08.24.14.35.02.04.04.08.06.12.06.11.13.21.2.3,3.29-2.79,6.93-5.72,10.81-8.68-.06-.18-.12-.34-.2-.49ZM180.53,169.37c-.07-.16-.15-.31-.23-.45-.28-.51-.62-.88-1.01-1.11-.52.4-1.04.8-1.56,1.2-.52.4-1.04.8-1.55,1.21-1.14.9-2.27,1.79-3.37,2.68-.55.44-1.1.88-1.63,1.33-.54.44-1.08.88-1.6,1.32h0c-.04.13-.06.25-.08.36-.03.12-.05.23-.06.34-.03.22-.05.42-.05.61,0,.12.01.23.02.34.01.11.02.21.04.3.02.1.04.19.07.27.04.13.08.24.14.35.02.04.04.08.06.12.06.11.13.21.2.3,3.29-2.79,6.93-5.72,10.81-8.68-.06-.18-.12-.34-.2-.49ZM180.53,169.37c-.07-.16-.15-.31-.23-.45-.28-.51-.62-.88-1.01-1.11-.52.4-1.04.8-1.56,1.2-.52.4-1.04.8-1.55,1.21-1.14.9-2.27,1.79-3.37,2.68-.55.44-1.1.88-1.63,1.33-.54.44-1.08.88-1.6,1.32h0c-.04.13-.06.25-.08.36-.03.12-.05.23-.06.34-.03.22-.05.42-.05.61,0,.12.01.23.02.34.01.11.02.21.04.3.02.1.04.19.07.27.04.13.08.24.14.35.02.04.04.08.06.12.06.11.13.21.2.3,3.29-2.79,6.93-5.72,10.81-8.68-.06-.18-.12-.34-.2-.49ZM180.53,169.37c-.07-.16-.15-.31-.23-.45-.28-.51-.62-.88-1.01-1.11-.52.4-1.04.8-1.56,1.2-.52.4-1.04.8-1.55,1.21-1.14.9-2.27,1.79-3.37,2.68-.55.44-1.1.88-1.63,1.33-.54.44-1.08.88-1.6,1.32h0c-.04.13-.06.25-.08.36-.03.12-.05.23-.06.34-.03.22-.05.42-.05.61,0,.12.01.23.02.34.01.11.02.21.04.3.02.1.04.19.07.27.04.13.08.24.14.35.02.04.04.08.06.12.06.11.13.21.2.3,3.29-2.79,6.93-5.72,10.81-8.68-.06-.18-.12-.34-.2-.49Z"></path>
    </g>
    <circle class="cls-1" cx="157.69" cy="153" r="8.53"></circle>
    <circle class="cls-1" cx="174.11" cy="143.38" r="4.79"></circle>
    <circle class="cls-1" cx="185.88" cy="166.32" r="4.79"></circle>
    <circle class="cls-1" cx="166.96" cy="183.55" r="4.79"></circle>
    <circle class="cls-1" cx="155.8" cy="172.9" r="4.79"></circle>
    <polygon class="cls-1" points="175.92 163.87 167.23 170.82 159.65 157.68 165.24 153 175.92 163.87"></polygon>
    <rect class="cls-1" x="148.96" y="155.42" width="32.69" height="5.01" transform="translate(-56.78 212.18) rotate(-57.42)"></rect>
    <path class="cls-1" d="M167.96,183.41c-3.22-2.08-4.36-5.75-3.04-9.82,1.78-5.49,8.01-11.39,13.67-11.09,2.2.12,6.1,1.3,7.45,7.8l-4.91,1.02c-.51-2.45-1.46-3.74-2.82-3.81-2.87-.15-7.4,3.84-8.63,7.63-.92,2.83.47,3.72.99,4.06l-2.72,4.21Z"></path>
  </g>
  <g>
    <circle class="cls-1" cx="81.27" cy="163.97" r="30.06"></circle>
    <circle class="cls-2" cx="89.06" cy="150.75" r="9.63"></circle>
    <rect class="cls-2" x="51.84" y="171.07" width="42.31" height="4" transform="translate(-107.86 122.34) rotate(-51.46)"></rect>
    <rect class="cls-2" x="87.62" y="139.76" width="15.41" height="4" transform="translate(-74.95 128.01) rotate(-51.46)"></rect>
    <path class="cls-2" d="M50.07,164.18l-2.93-2.72c9.37-10.09,22.63-15.15,37.38-14.24l-.25,3.99c-13.53-.83-25.67,3.78-34.2,12.97Z"></path>
    <path class="cls-2" d="M94.66,194.51l-3.55-1.83c5.31-10.3,5.69-23.56,1.04-36.38l3.76-1.37c5.03,13.86,4.58,28.29-1.24,39.58Z"></path>
    <path class="cls-2" d="M115.37,168.25h-4c0-7.81-2.54-17.13-14.62-17.13v-4c11.83,0,18.62,7.7,18.62,21.13Z"></path>
    <path class="cls-2" d="M83.19,148.16c-.88-4.62-2.97-7.92-6.21-9.81-3.34-1.95-7.83-2.4-13.34-1.36l-.75-3.93c6.49-1.23,11.91-.62,16.1,1.83,4.23,2.47,7.04,6.8,8.12,12.52l-3.93.75Z"></path>
  </g>
  <g>
    <path class="cls-1" d="M183.71,31.15c2.86-1.48,9.68-4.64,16.29-5.29v41.95c-.99.13-2.22.28-3.63.39-8.88.76-24.65.53-30.43-9.5-1.81-3.15-1.98-6.23-1.16-9.13.3-1.01.71-2,1.21-2.96,3.53-6.71,11.65-11.99,14.92-13.92.87-.52,1.4-.8,1.4-.8,0,0,.51-.29,1.4-.74Z"></path>
    <path class="cls-1" d="M200,60.89v13.47l-1.88,1.1c-1.6.93-3.52-.53-3.05-2.31l1.3-4.95,2.03-7.73,1.6.42Z"></path>
    <path class="cls-2" d="M194.76,55.5c-.56,0-1.1-.29-1.39-.81l-13.38-23.65c-.43-.77-.16-1.74.6-2.18.77-.44,1.74-.16,2.18.6l13.38,23.65c.43.77.16,1.74-.6,2.18-.25.14-.52.21-.79.21Z"></path>
    <path class="cls-2" d="M188.82,60.55c-.22,0-.45-.05-.67-.15l-24.65-11.42c-.8-.37-1.15-1.32-.78-2.12.37-.8,1.32-1.15,2.12-.78l24.65,11.42c.8.37,1.15,1.32.78,2.12-.27.58-.85.93-1.45.93Z"></path>
  </g>
  <g>
    <path class="cls-1" d="M110.05,38.79s-8.19-25.43,3.97-34.49c11.91-8.87,26.26,12.05,26.26,12.05,0,0,14.94,20.1,3.75,28.39s-33.98-5.95-33.98-5.95Z"></path>
    <path class="cls-1" d="M103.97,32.47l11.94,1.67-1.67,11.94c-.23,1.68-2.38,2.24-3.41.88l-8.65-11.46c-1.02-1.35.1-3.27,1.78-3.03Z"></path>
    <path class="cls-2" d="M120.06,30.28c-.06-.51.15-1.03.59-1.36l20.16-14.78c.65-.48,1.57-.34,2.05.32.48.65.34,1.57-.32,2.05l-20.16,14.78c-.65.48-1.57.34-2.05-.32-.16-.21-.25-.45-.27-.7Z"></path>
    <path class="cls-2" d="M122.6,36.6s0-.09-.01-.13c-.02-.81.62-1.49,1.43-1.51l24.99-.68c.81-.02,1.48.62,1.51,1.43.02.81-.62,1.49-1.43,1.51l-24.99.68c-.77.02-1.41-.55-1.5-1.3Z"></path>
    <path class="cls-2" d="M114.8,25.4c-.02-.21,0-.42.06-.63l7.77-23.76c.25-.77,1.08-1.19,1.85-.94.77.25,1.19,1.08.94,1.85l-7.77,23.76c-.25.77-1.08,1.19-1.85.94-.56-.18-.94-.67-1-1.22Z"></path>
  </g>
  <g>
    <rect class="cls-1" x="102.28" y="74.25" width="45.51" height="45.51" transform="translate(-22.96 40.95) rotate(-17.06)"></rect>
    <rect class="cls-1" x="102.28" y="74.25" width="45.51" height="45.51" transform="translate(-19.24 162.02) rotate(-62.06)"></rect>
    <g>
      <path class="cls-1" d="M125.02,119.83c-3.7,0-7.39-.92-10.68-2.67-5.39-2.86-9.34-7.64-11.13-13.47-1.79-5.83-1.2-12.01,1.66-17.39,3.97-7.49,11.71-12.14,20.19-12.14,3.7,0,7.39.92,10.68,2.66,5.39,2.86,9.34,7.64,11.13,13.47s1.2,12.01-1.66,17.4c-3.97,7.49-11.71,12.14-20.19,12.14Z"></path>
      <path class="cls-2" d="M148.77,89.72c-.92-3.01-2.38-5.77-4.28-8.16-.2-.26-.4-.51-.62-.75-1.99-2.32-4.42-4.27-7.2-5.74-2.74-1.46-5.74-2.39-8.81-2.74h-.01c-.31-.04-.62-.07-.93-.09h-.01c-.62-.05-1.23-.07-1.85-.07-5.73,0-11.14,1.95-15.46,5.38-.25.2-.5.4-.74.61-2.31,1.98-4.28,4.42-5.76,7.21-1.47,2.78-2.39,5.74-2.74,8.77h0c-.04.34-.07.67-.09,1h0c-.23,3.05.11,6.13,1.03,9.14.93,3.01,2.39,5.77,4.29,8.16.19.26.4.5.61.74,1.99,2.32,4.42,4.28,7.21,5.75,2.74,1.46,5.74,2.39,8.81,2.74h.01c.31.04.62.07.93.09h.01c.62.05,1.23.07,1.85.07,5.73,0,11.14-1.95,15.46-5.39h.01c.24-.2.47-.39.71-.59,0,0,.01,0,.01-.01,2.31-1.98,4.28-4.42,5.76-7.21,1.47-2.77,2.39-5.74,2.75-8.77.03-.33.07-.66.09-1h0c.23-3.05-.11-6.13-1.04-9.14ZM125.02,117.83c-3.29,0-6.63-.78-9.74-2.43-10.16-5.39-14.03-18-8.64-28.16,3.74-7.05,10.95-11.07,18.42-11.07,3.29,0,6.63.78,9.74,2.43,10.16,5.39,14.03,18,8.64,28.16-3.74,7.05-10.96,11.07-18.42,11.07Z"></path>
    </g>
  </g>
  <path class="cls-1" d="M47.59,102.5l3.31-4.62c.66-1.25,2.49-1.15,3,.17l1.89,4.85,4.8,1.7c1.11.39,1.46,1.79.67,2.67l-2.52,2.78c-.32.36-.48.84-.41,1.32l.6,4.69c.19,1.45-1.47,2.41-2.64,1.52l-4.99-3.03-6.17,2.59c-1.27.77-2.83-.4-2.45-1.83l1.4-5.29-2.85-3.95c-.73-1.01-.12-2.43,1.11-2.6l5.26-.97Z"></path>
  <path class="cls-1" d="M184.56,100.35l3.31-4.62c.66-1.25,2.49-1.15,3,.17l1.89,4.85,4.8,1.7c1.11.39,1.46,1.79.67,2.67l-2.52,2.78c-.32.36-.48.84-.41,1.32l.6,4.69c.19,1.45-1.47,2.41-2.64,1.52l-4.99-3.03-6.17,2.59c-1.27.77-2.83-.4-2.45-1.83l1.4-5.29-2.85-3.95c-.73-1.01-.12-2.43,1.11-2.6l5.26-.97Z"></path>
  <path class="cls-1" d="M24.26,84.05l-2.86-1.86c-.64-.56-1.64-.1-1.64.75v3.12s-2.31,2-2.31,2c-.53.46-.43,1.32.21,1.64l2.01,1.01c.26.13.45.37.52.65l.68,2.75c.21.85,1.35,1.03,1.81.28l2.13-2.78,4.01.1c.88.15,1.5-.84.97-1.56l-1.93-2.65.73-2.83c.19-.72-.46-1.38-1.19-1.21l-3.15.6Z"></path>
  <g>
    <g>
      <path class="cls-1" d="M62.17,23.91c-3.8,8.53-6.14,20.71,5.31,35.21l-11.31.94c-4.22-7.3-6.59-27.63,3.2-37.28l2.8,1.12Z"></path>
      <path class="cls-1" d="M79.44,33.31c2.16-4.43-.34-10.1-5.6-12.67-5.25-2.57-11.27-1.05-13.43,3.38,7.75.81,14.3,3.56,19.03,9.29Z"></path>
      <path class="cls-1" d="M60.42,24.05c2.16-4.43-.34-10.1-5.6-12.67s-11.27-1.05-13.43,3.38c7.75.81,14.3,3.56,19.03,9.29Z"></path>
      <path class="cls-1" d="M67.94,43.62c4.54-1.92,6.37-7.84,4.09-13.23s-7.81-8.19-12.35-6.27c5.31,5.7,8.45,12.07,8.25,19.5Z"></path>
      <path class="cls-1" d="M60.73,24.61c-1.26-4.77-6.86-7.42-12.52-5.93-5.65,1.49-9.21,6.57-7.95,11.33,6.39-4.45,13.15-6.66,20.47-5.41Z"></path>
    </g>
    <path class="cls-1" d="M40.17,74.1c-1-12,7.92-22.53,19.92-23.53,12-1,22.53,7.92,23.53,19.92l-43.44,3.61Z"></path>
  </g>
  <g>
    <g>
      <g>
        <path class="cls-1" d="M10.1,161.7c-2.82,2.81-6.26,5.94-10.1,9.2v-17.41c6.28-3.81,11.56-6.35,14.27-6.35,1.62,0,2.52.73,2.99,1.34,1.92,2.52-.02,6.1-7.16,13.22Z"></path>
        <path class="cls-2" d="M19.25,146.96c-.66-.87-2.19-2.32-4.98-2.32-3.19,0-8.57,2.56-14.27,5.93v5.84c6.83-4.24,12.06-6.76,14.27-6.76.48,0,.81.11,1,.35,1.27,1.66-5.06,8.76-15.27,17.6v6.57c4.55-3.8,8.61-7.45,11.87-10.7,4.52-4.5,11.35-11.31,7.38-16.51Z"></path>
      </g>
      <path class="cls-1" d="M17.65,170.77c-7.26-.39-9.44-.33-14.75,4.18,0,0,6.3-10.29,13.48-11.53,3.84-.67,6.39-.13,7.02,2.74.65,2.97-1.74,4.83-5.76,4.61Z"></path>
      <path class="cls-1" d="M23.56,185.92c-5.8-6.7-8.88-8.62-14.75-7.79,2.1-2.68,10.61-6.57,18.61-2.64,5.86,2.88,6.56,6.66,6.15,9.18-.46,2.9-5.08,6.94-10.01,1.25Z"></path>
    </g>
    <g>
      <path class="cls-1" d="M6.23,62.53c-2.02,2.99-3.57,4.86-3.57,4.86,0,0-.99.19-2.66.42V25.86c.9-.09,1.8-.14,2.68-.11,1.09.01,2.16.12,3.18.34,3.08.64,5.78,2.25,7.57,5.38,5.52,9.64-2.24,23.72-7.2,31.06Z"></path>
      <path class="cls-1" d="M11.6,67.59l-11.6,6.77v-13.47l6.23,1.64,4.85,1.27c1.78.47,2.11,2.86.52,3.79Z"></path>
      <path class="cls-2" d="M1.91,53.57s-.1,0-.15,0c-.88-.08-1.53-.86-1.45-1.74l2.46-27.06c.08-.88.86-1.51,1.74-1.45.88.08,1.53.86,1.45,1.74l-2.46,27.06c-.08.83-.77,1.45-1.59,1.45Z"></path>
    </g>
  </g>
  <g>
    <path class="cls-1" d="M169.61,0c-2.13,2.82-5.55,4.94-8.7,4.96l.4-4.13.09-.83h8.21Z"></path>
    <g>
      <path class="cls-1" d="M151.38,0h5.47c-1.27.44-2.34.68-3.17.68-1.04,0-1.78-.3-2.3-.68Z"></path>
      <path class="cls-2" d="M148.15,0c.15.29.33.58.55.86.67.87,2.19,2.33,4.98,2.33,1.9,0,4.57-.91,7.63-2.36.55-.26,1.12-.53,1.7-.83h-14.86Z"></path>
    </g>
  </g>
</svg>
