<?xml version="1.0" encoding="UTF-8"?>
<svg xmlns="http://www.w3.org/2000/svg" id="Layer_5" version="1.1" viewBox="0 0 200 200">
  <defs>
    <style>
      .st0, .st1, .st2 {
        fill-rule: evenodd;
      }

      .st0, .st3 {
        fill: #6a1b9a;
      }

      .st1, .st4 {
        fill: #8e1ec7;
      }

      .st2, .st5 {
        fill: #a220df;
      }
    </style>
  </defs>
  <rect class="st5" width="200" height="200"></rect>
  <rect class="st5" width="200" height="200"></rect>
  <path class="st0" d="M200,118.5v44.5h0c-1.4-.6-2.7-1.3-3.9-2.1-3.1-2.1-5.7-5-7.4-8.4l-8.2-1.3c-2.7,2.7-6,4.7-9.6,5.8s-7.5,1.2-11.2.3-7.1-2.7-9.9-5.2c-2.8-2.6-4.9-5.9-6.1-9.5-1.2-3.6-1.4-7.5-.7-11.3s2.4-7.2,4.9-10.2c2.5-2.9,5.6-5.1,9.2-6.5,3.6-1.3,7.4-1.7,11.1-1.1l31.8,5h0Z"></path>
  <polygon class="st0" points="162.6 132.4 154.3 131.1 153.4 136.7 161.7 138 160.4 146.2 165.9 147.1 167.2 138.8 175.5 140.1 176.3 134.6 168.1 133.3 169.4 125 163.8 124.2 162.6 132.4"></polygon>
  <path class="st0" d="M200,136.8v11.2h-.9c-3-.5-5.1-3.3-4.7-6.4.4-2.8,2.8-4.8,5.6-4.7h0Z"></path>
  <path class="st3" d="M133,2.4c-7.6,1.3-15.3,2.1-22.9,2.4.4-1.6.7-3.1,1-4.8h14.2c2.5,1,5.1,1.7,7.7,2.4Z"></path>
  <path class="st1" d="M123.7,40.6h-.2c-1.5-4.5-4.1-8.5-7.5-11.6-3.5-3.2-7.6-5.4-12.2-6.5-4.5-1.1-9.2-.9-13.7.3l-52,15.2c-4.5,1.3-8.5,3.7-11.8,7.1-3.3,3.3-5.6,7.5-6.8,12s-1.3,9.3,0,13.9c1.1,4.5,3.4,8.7,6.6,12.2,3.2,3.4,7.2,6,11.7,7.4,4.4,1.4,9.2,1.7,13.7.7,4.6-1,8.8-3.1,12.3-6.2,3.5-3.1,6.1-7,7.7-11.5l9.8-2.8c3.7,2.9,8,4.8,12.6,5.5,4.6.7,9.3.3,13.7-1.4,4.4-1.6,8.2-4.4,11.2-8,3-3.6,5-7.9,5.9-12.5.9-4.6.5-9.4-.9-13.8ZM53,76.4l-6.6,2-2.9-9.9-9.9,2.9-1.9-6.6,9.9-2.9-2.9-9.9,6.6-1.9,2.9,9.9,9.9-2.9,1.9,6.6-9.9,2.9,2.9,9.8ZM90.1,60.2h.1c-3.6,1.1-7.4-1-8.5-4.7-1.1-3.6,1-7.4,4.6-8.5,3.6-1,7.4,1,8.5,4.7,1.1,3.6-1,7.4-4.7,8.5ZM107.1,46.5c-3.6,1.1-7.4-1-8.5-4.7-1.1-3.6,1-7.4,4.7-8.5,3.6-1.1,7.4,1,8.5,4.7,1.1,3.6-1,7.4-4.7,8.5Z"></path>
  <path class="st1" d="M200,118.5v44.5h0c-1.4-.6-2.7-1.3-3.9-2.1-3.1-2.1-5.7-5-7.4-8.4l-8.2-1.3c-2.7,2.7-6,4.7-9.6,5.8s-7.5,1.2-11.2.3-7.1-2.7-9.9-5.2c-2.8-2.6-4.9-5.9-6.1-9.5-1.2-3.6-1.4-7.5-.7-11.3s2.4-7.2,4.9-10.2c2.5-2.9,5.6-5.1,9.2-6.5,3.6-1.3,7.4-1.7,11.1-1.1l31.8,5h0Z"></path>
  <polygon class="st2" points="162.6 132.4 154.3 131.1 153.4 136.7 161.7 138 160.4 146.2 165.9 147.1 167.2 138.8 175.5 140.1 176.3 134.6 168.1 133.3 169.4 125 163.8 124.2 162.6 132.4"></polygon>
  <path class="st2" d="M200,136.8v11.2h-.9c-3-.5-5.1-3.3-4.7-6.4.4-2.8,2.8-4.8,5.6-4.7h0Z"></path>
  <polygon class="st4" points="98.4 112 94.5 101.7 103.5 110.1 111.3 98 109 111.8 118.9 111.5 109.2 118.9 120.9 134.1 103.2 122.9 95.7 133.8 96.7 119.3 84.2 111.9 98.4 112"></polygon>
  <polygon class="st4" points="45.5 168.3 47.6 162.3 48.5 169.3 56.3 167 50.2 172.1 54.6 175.6 47.7 175.3 47.1 186.2 43.6 174.8 36.3 176.8 42.1 170.8 39.4 163 45.5 168.3"></polygon>
  <polygon class="st4" points="185.9 21.5 188 15.5 188.9 22.5 196.7 20.1 190.6 25.3 195.1 28.8 188.1 28.5 187.5 39.4 184 28 176.7 30 182.5 24 179.8 16.2 185.9 21.5"></polygon>
  <path class="st4" d="M145.7,55.9c4,5.1,7.1,10.8,9.3,16.9-4.1.9-8.3,1.6-12.5,1.9,2.4,6.6,5.2,13,8.3,19.3-.2-4.4,0-8.8.5-13.2,3.7-.3,7.3-1.3,10.6-2.7.3,0,.6-.3.8-.6.2-.3,0-.7,0-1.1-1.4-4.1-2.7-8.1-4.1-12.1,4.9.3,9.8-.3,14.4-1.9-.8-3.2-1.6-6.5-2.4-9.7-3.4,2-7.3,3-11.3,3.3-1.6,0-12.9,1.1-13.6,0h0v-.2Z"></path>
  <path class="st4" d="M111.1,199.8c.5-2.9.9-5.8,1.1-8.7-7,.2-14,1.7-20.7,4.2,1.3-.6,4-12.6,4.4-14.3,1-4.3,1.3-8.6.3-12.9,3.7.2,7.3.5,11,.7.2,5.3-.8,10.7-2.7,15.7,4.7,0,9.4-.2,14.1-.3.4,0,.9,0,1.2.3.2.3.3.7.3,1,.4,4,.1,8.1-.7,12.1,1.7.8,3.4,1.5,5.1,2.2.2,0,.3.1.5.2h-13.9v-.2Z"></path>
  <path class="st1" d="M30.3,144.9c-.5,3.8-1.8,7.4-4.1,10.5-2.2,3.1-5.2,5.6-8.6,7.2-3.4,1.6-7.2,2.3-11,2-2.3-.2-4.5-.7-6.6-1.6H0v-44.5H0l11.8,1.8h0c3.7.6,7.2,2.1,10.2,4.5s5.3,5.5,6.8,9c1.4,3.5,2,7.4,1.5,11.1h0Z"></path>
  <path class="st2" d="M5.4,143.2C5,145.9,2.7,147.9,0,147.9H0v-11.2h.7c3,.5,5.1,3.3,4.7,6.4h0Z"></path>
  <path class="st2" d="M17.9,132.6c-3-.5-5.9,1.6-6.4,4.7-.5,3.1,1.6,5.9,4.7,6.4s5.9-1.6,6.4-4.7c.5-3.1-1.6-5.9-4.7-6.4Z"></path>
  <path class="st4" d="M133,2.4c-7.6,1.3-15.3,2.1-22.9,2.4.4-1.6.7-3.1,1-4.8h14.2c2.5,1,5.1,1.7,7.7,2.4Z"></path>
</svg>
